<?xml version="1.0" encoding="utf-8"?>
<!-- Generator: Adobe Illustrator 18.0.0, SVG Export Plug-In . SVG Version: 6.00 Build 0)  -->
<!DOCTYPE svg PUBLIC "-//W3C//DTD SVG 1.1//EN" "http://www.w3.org/Graphics/SVG/1.1/DTD/svg11.dtd">
<svg version="1.1" id="Layer_1" xmlns="http://www.w3.org/2000/svg" xmlns:xlink="http://www.w3.org/1999/xlink" x="0px" y="0px"
	 viewBox="0 0 173 223.6" enable-background="new 0 0 173 223.6" xml:space="preserve">
<path fill="#5A9EC1" d="M57.5,152.3c6.9,5.2,5.3,7.7,6.2,18v7.3h0v13h8.1l5.6,16.4h7.9c0.6,4.5,4.4,7.9,9,7.9c4.6,0,8.4-3.4,9-7.9
	h7.9l5.6-16.4h7.3V170c0.8-10.1,0.2-14.6,6.2-17.7c1.2-0.7,2.4-1.5,3.5-2.3c0.4-0.3,0.8-0.6,1.2-0.9c0.7-0.5,1.5-1.1,2.2-1.6
	c0.5-0.4,0.9-0.8,1.4-1.2c0.6-0.5,1.2-1,1.8-1.6c0.5-0.4,0.9-0.9,1.4-1.3c0.6-0.5,1.1-1,1.6-1.6c0.5-0.5,0.9-1,1.4-1.5
	c0.5-0.5,1-1.1,1.5-1.6c0.5-0.5,0.9-1.1,1.3-1.6c0.5-0.5,0.9-1.1,1.3-1.7c0.4-0.6,0.9-1.1,1.3-1.7c0.4-0.6,0.8-1.1,1.2-1.7
	c0.4-0.6,0.8-1.2,1.2-1.8c0.4-0.6,0.7-1.1,1.1-1.7c0.4-0.6,0.8-1.3,1.1-1.9c0.3-0.6,0.6-1.2,0.9-1.7c0.4-0.7,0.7-1.4,1-2.1
	c0.3-0.6,0.5-1.2,0.8-1.7c0.3-0.7,0.6-1.5,0.9-2.2c0.2-0.6,0.4-1.1,0.7-1.7c0.3-0.8,0.6-1.5,0.8-2.3c0.2-0.5,0.3-1.1,0.5-1.6
	c0.3-0.8,0.5-1.7,0.7-2.5c0.1-0.5,0.2-0.9,0.3-1.4c0.2-0.9,0.5-1.9,0.7-2.9c0-0.2,0-0.3,0.1-0.5c0.8-4.2,1.2-8.5,1.2-13
	c0-37.2-29.1-67.4-65.7-69.5c0.1,0,0.1,0,0.2-0.1c-1.4-0.1-2.8-0.1-4.2-0.1c-38.5,0-69.7,31.2-69.7,69.7
	C24.2,118,37.6,140.1,57.5,152.3z"/>
<g>
	<path fill="#000F33" d="M91.3,192.8c0,5.1-4.1,9.2-9.2,9.2c-5.1,0-9.2-4.1-9.2-9.2c0-5.1,4.1-9.2,9.2-9.2
		C87.2,183.7,91.3,187.8,91.3,192.8z"/>
	<path fill="#FDBB35" d="M111.9,164.7v-7.3c0.9-10.3,0.1-14.9,6.2-18c20-12.3,33.3-34.3,33.3-59.5c0-38.5-31.2-69.7-69.7-69.7
		C43.2,10.2,12,41.4,12,79.9c0,25.2,13.3,47.2,33.3,59.5c6.9,5.2,5.3,7.7,6.2,18v7.3H111.9z"/>
	<path fill="#FFD133" d="M139.3,74.3c-6.7,8.3-25.9,4-42.9-9.6C79.4,51,71.1,33.2,77.8,24.8c6.7-8.3,25.9-4,42.9,9.6
		C137.7,48.1,146,65.9,139.3,74.3z"/>
	<path fill="#FAA435" d="M150.9,86.2c-1.1,4.3-2.3,8.7-4.1,12.8c-4.3,9.4-12.9,17.1-21.7,22.3c-9.1,5.5-19.5,9.1-30.2,9.9
		c-10.2,0.7-20.7-1-29.5-6.5c-9-5.6-16.1-14.2-21-23.6c-4.9-9.5-8.2-20.2-8.3-31c-0.1-10.9,3.2-21.6,9.1-30.7
		c9.3-14.3,24.2-24.7,40.6-29.1c-1.4-0.1-2.8-0.1-4.2-0.1C43.2,10.2,12,41.4,12,79.9c0,25.2,13.3,47.2,33.3,59.5
		c6.9,5.2,5.3,7.7,6.2,18v7.3h60.5v-7.3c0.9-10.3,0.1-14.9,6.2-18c18.7-11.5,31.5-31.4,33.1-54.5C151.1,85.3,151,85.8,150.9,86.2z"
		/>
	<rect x="51.5" y="152.9" fill="#002E56" width="60.5" height="24.7"/>
	<g>
		<path fill="none" stroke="#192A45" stroke-width="2.9433" stroke-miterlimit="10" d="M130.3,87.4l0.4-13.5l-8.2-0.3
			c-0.5-2.8-1.3-5.5-2.3-8.1l7.5-4.1l-6.5-11.8l-8,4.4c-1.7-2-3.6-3.9-5.7-5.5l4.8-8l-11.6-6.9l-4.9,8.3c-2.4-0.9-4.9-1.5-7.4-1.9
			v-9.7H75v9.7c-1.9,0.3-3.9,0.8-5.7,1.3l-4.5-8.5L52.8,39l4.4,8.3c-1.9,1.4-3.7,3-5.4,4.7l-7.7-4.9l-7.3,11.4l7.3,4.6
			C43,65.6,42,68.2,41.4,71l-8.3-0.3l-0.4,13.5l7.7,0.3c0.3,3,0.8,5.9,1.7,8.7l-6.4,3.5l6.5,11.8l5.9-3.3c1.8,2.5,3.9,4.8,6.3,6.9
			l-3.3,5.6l11.6,6.9l3.1-5.3c2.9,1.2,6,2.1,9.2,2.6v6h13.5v-6c2.5-0.4,5-1.1,7.4-1.9l2.9,5.4l11.9-6.3l-3-5.7
			c2.2-1.8,4.3-3.8,6.1-6l5.6,3.6l7.3-11.4l-6.1-3.9c1.1-2.7,1.8-5.6,2.3-8.6L130.3,87.4z"/>
		<path fill="none" stroke="#192A45" stroke-width="2.9433" stroke-miterlimit="10" d="M81.7,49.6c-16.3,0-29.5,13.2-29.5,29.5
			c0,16.3,13.2,29.5,29.5,29.5c16.3,0,29.5-13.2,29.5-29.5C111.2,62.7,98,49.6,81.7,49.6z M81.7,99.2c-11.2,0-20.2-9-20.2-20.2
			c0-11.1,9-20.2,20.2-20.2c11.2,0,20.2,9,20.2,20.2C101.9,90.2,92.9,99.2,81.7,99.2z"/>
	</g>
	<polygon fill="#00274D" points="89.3,177.6 74.9,177.6 59.6,177.6 65.1,194.1 74.9,194.1 89.3,194.1 99.1,194.1 104.6,177.6 	"/>
</g>
</svg>
